M48
INCH
T01C0.025
T02C0.035
T03C0.04
T04C0.0433
T05C0.138
%
T01
X-010625Y+021200
X-010625Y+020500
X-010625Y+019800
T02
X-001250Y-005500
X-001850Y-003750
X-001600Y-002500
X-003525Y-002875
X-003438Y-000125
X-003438Y+000875
X-003438Y+001875
X-003438Y+002875
X-003438Y+003875
X-003438Y+004875
X-003438Y+005875
X-005250Y+005375
X-006400Y+006875
X-005250Y+007375
X-003875Y+008000
X-002875Y+008000
X-000312Y+005875
X-000312Y+004875
X-000312Y+003875
X-000312Y+002875
X-000312Y+001875
X-000312Y+000875
X-000312Y-000125
X+001750Y-001100
X+001600Y-002500
X+001350Y-003750
X+000750Y-005500
X+001750Y+002100
X-006725Y-002875
X-008125Y+002150
X-009500Y+002400
X-012150Y+001250
X-012150Y-001500
X-015350Y-001500
X-015350Y+001250
X-015375Y+006750
X-015375Y+007750
X-015375Y+008750
X-015375Y+009750
X-012375Y+009750
X-012375Y+008750
X-012375Y+007750
X-012375Y+006750
X-011000Y+006775
X-009600Y+006875
X-009500Y+005600
X-008125Y+005350
X-009100Y+009500
X-011000Y+009975
X-010875Y+012125
X-010875Y+013125
X-010875Y+014125
X-010875Y+015125
X-007875Y+015125
X-007875Y+014125
X-007875Y+013125
X-007875Y+012125
X-005900Y+009500
X-003975Y+011625
X-000775Y+011625
X+001875Y+012150
X+001875Y+015350
X+001250Y+017000
X+001250Y+019000
X-001275Y+015750
X-004475Y+015750
X-013625Y+016350
X-013580Y+018933
X-014000Y+020625
X-014000Y+021625
X-016780Y+018933
X-016330Y+016600
X-016330Y+013400
X-013625Y+013150
T03
X-007845Y-002011
X-007875Y+018375
X-007875Y+019375
X-007875Y+020375
T04
X-007845Y-000239
X-010405Y-000239
X-010405Y-002011
T05
X+003500Y+021000
X-017000Y+021000
X-017000Y-005500
X+003500Y-005500
T00
M30
