G04 DipTrace 4.3.0.5*
G04 DemirBottom.gbr*
%MOIN*%
G04 #@! TF.FileFunction,Copper,L2,Bot*
G04 #@! TF.Part,Single*
G04 #@! TA.AperFunction,Conductor*
%ADD13C,0.02*%
G04 #@! TA.AperFunction,ComponentPad*
%ADD15C,0.09*%
%ADD16R,0.07X0.07*%
%ADD17C,0.07*%
%ADD18R,0.09X0.050699*%
%ADD19O,0.09X0.050394*%
%ADD20R,0.1X0.1*%
%ADD21C,0.1*%
%ADD22R,0.13X0.08*%
%ADD23O,0.13X0.08*%
%ADD24R,0.12X0.08*%
%ADD25R,0.077953X0.077953*%
%ADD26C,0.077953*%
%FSLAX26Y26*%
G04*
G70*
G90*
G75*
G01*
G04 Bottom*
%LPD*%
X-1237500Y775000D2*
G54D13*
X-1287500D1*
X-1487388Y575112D1*
Y172612D1*
X-1535000Y125000D1*
X-1237500Y875000D2*
X-1154927D1*
X-1112500Y832573D1*
Y804239D1*
X-1100000D1*
Y677500D1*
X-640000Y687500D2*
X-810650D1*
X-885650Y762500D1*
X-1112500D1*
Y804239D1*
X-287500Y800000D2*
Y900000D1*
X-487500D1*
X-612500Y775000D1*
X-812500D1*
X-850000Y812500D1*
X-1025000D1*
X-1100000Y887500D1*
Y997500D1*
X-1537500Y875000D2*
X-1607388D1*
X-1647388Y835000D1*
Y84239D1*
X-1607388Y44239D1*
X-1447388D1*
X-1291627Y200000D1*
X-1022500D1*
X-982500Y240000D1*
X-950000D1*
X-352500Y-287500D2*
X-350000D1*
Y-412500D1*
X-168750Y-593750D1*
X-125000Y-550000D1*
X-31201Y87500D2*
X-84127D1*
X-352500Y-180873D1*
Y-287500D1*
X-1632972Y1340000D2*
Y1454528D1*
X-1500000Y1587500D1*
Y1737500D1*
X-1358031Y1879469D1*
Y1893304D1*
X-1537500Y975000D2*
Y1134350D1*
X-1632972Y1229823D1*
Y1340000D1*
X175000Y210000D2*
X158373D1*
X135873Y187500D1*
X-31201D1*
X-77500Y1162500D2*
Y902500D1*
X-75000Y900000D1*
Y700000D1*
X-175000Y600000D1*
Y212500D1*
X-150000Y187500D1*
X-31201D1*
X-1400000Y2162500D2*
X-1425000D1*
X-1575000Y2012500D1*
Y1837500D1*
X-1632972Y1779528D1*
Y1660000D1*
X-1362500Y1315000D2*
Y1425000D1*
X-1137500Y1650000D1*
Y1905000D1*
X-1062500Y1980000D1*
X-1678031Y1893304D2*
Y1813596D1*
X-1800000Y1691627D1*
Y-50000D1*
X-1700000Y-150000D1*
X-1535000D1*
Y-115000D1*
X-1725000Y75000D1*
Y1437500D1*
X-1550000Y1612500D1*
Y1762500D1*
X-1475000Y1837500D1*
Y1908749D1*
X-1396249Y1987500D1*
X-1304927D1*
X-1262500Y1945073D1*
Y1862500D1*
X-1450000Y1675000D1*
Y1562500D1*
X-1550000Y1462500D1*
Y1225000D1*
X-1412500Y1087500D1*
Y862500D1*
X-1500000Y775000D1*
X-1537500D1*
X-1362500Y1635000D2*
Y1569127D1*
X-1487388Y1444239D1*
Y1284239D1*
X-1327388Y1124239D1*
X-1007388D1*
X-927388Y1204239D1*
Y1244239D1*
X-859127Y1312500D1*
X-787500D1*
X-447500Y1575000D2*
X-710000Y1312500D1*
X-787500D1*
X-784502Y-23898D2*
Y-23903D1*
X-1040502D1*
X-784502Y-23898D2*
X-662500D1*
Y-232573D1*
X-672500Y-242573D1*
Y-287500D1*
X135000Y-375000D2*
Y-490000D1*
X75000Y-550000D1*
X-31201Y-12500D2*
X87500D1*
X90000Y-10000D1*
X210000D1*
X250000Y-50000D1*
Y-320073D1*
X195073Y-375000D1*
X135000D1*
X-185000D2*
Y-250000D1*
X-160000D1*
X187511Y1215000D2*
Y1374989D1*
X-87500Y1650000D1*
X-487500D1*
X-725000Y1412500D1*
X-787500D1*
X187511Y1215000D2*
Y1177510D1*
X125000Y1114999D1*
Y580932D1*
X312500Y393432D1*
Y-437500D1*
X100000Y-650000D1*
X10000D1*
X-10000Y-630000D1*
Y-410000D1*
X-150000D1*
X-185000Y-375000D1*
X-960000Y687500D2*
X-962500D1*
X-1125000Y525000D1*
X-1021739Y421739D1*
X-847388D1*
Y249888D1*
X-812500Y215000D1*
X-1237500Y675000D2*
Y532500D1*
X-1126739Y421739D1*
X-1021739D1*
X-1087500Y1212500D2*
X-1062500D1*
X-925000Y1350000D1*
Y1700000D1*
X-787499Y1837500D1*
X-525000Y737500D2*
X-462500D1*
X-400000Y800000D1*
X-387500D1*
X-525000Y737500D2*
Y700000D1*
X-212500D1*
Y975000D1*
X-590000D1*
Y950000D1*
X-397500Y1162500D2*
X-487500D1*
X-775000Y875000D1*
X-987500D1*
Y1075000D1*
X-1300000D1*
X-1350000Y1025000D1*
Y837500D1*
X-1512500Y675000D1*
X-1537500D1*
X-590000Y950000D2*
Y970000D1*
X-397500Y1162500D1*
X-343799Y287500D2*
X-425000D1*
X-450000Y312500D1*
Y662500D1*
X-525000Y737500D1*
X125003Y1700000D2*
X-528150D1*
X-715650Y1512500D1*
X-787500D1*
X-1062500Y2050000D2*
X-900001D1*
X-787501Y1937500D1*
X-725000D1*
X-687500Y1900000D1*
Y1512500D1*
X-787500D1*
X125003Y1700000D2*
Y1597486D1*
X187489Y1535000D1*
X-1400000Y2062500D2*
X-1275000D1*
X-1175000Y2162500D1*
Y2187500D1*
X-1162500Y2200000D1*
X-762500D1*
X-637500Y2075000D1*
X-249997D1*
X125003Y1700000D1*
X-787500Y1212500D2*
X-679127D1*
X-316627Y1575000D1*
X-127500D1*
X-812500Y535000D2*
X-527500D1*
X-525000Y537500D1*
X160000Y-250000D2*
Y-125000D1*
X175000Y-110000D1*
X-950000Y560000D2*
Y487500D1*
X-812500D1*
Y535000D1*
X175000Y-110000D2*
Y-150000D1*
X-175000D1*
X-275000Y-250000D1*
Y-400000D1*
X-200000Y-475000D1*
X-87500D1*
X-50000Y-512500D1*
Y-637500D1*
X-62500Y-650000D1*
X-200000D1*
X-450000Y-400000D1*
Y-112500D1*
X-525000Y-37500D1*
Y537500D1*
X-1062500Y2120000D2*
X-787503D1*
Y2037500D1*
G54D15*
X-125000Y-550000D3*
X75000D3*
X125003Y1700000D3*
X124997Y1900000D3*
X-525000Y737500D3*
Y537500D3*
G54D16*
X-1400000Y2062500D3*
G54D17*
Y2162500D3*
G54D16*
X-387500Y800000D3*
G54D17*
X-287500D3*
G54D18*
X-1062500Y2120000D3*
G54D19*
Y2050000D3*
Y1980000D3*
G54D15*
X-950000Y560000D3*
Y240000D3*
X-1215000Y-150000D3*
X-1535000D3*
X-1215000Y125000D3*
X-1535000D3*
X-812500Y535000D3*
Y215000D3*
X-1678031Y1893304D3*
X-1358031D3*
X-1632972Y1340000D3*
Y1660000D3*
X-1100000Y677500D3*
Y997500D3*
X-1362500Y1315000D3*
Y1635000D3*
X-447500Y1575000D3*
X-127500D3*
X-672500Y-287500D3*
X-352500D3*
X-185000Y-375000D3*
X135000D3*
X187489Y1535000D3*
X187511Y1215000D3*
X-160000Y-250000D3*
X160000D3*
X-397500Y1162500D3*
X-77500D3*
X175000Y-110000D3*
Y210000D3*
X-960000Y687500D3*
X-640000D3*
X-590000Y950000D3*
X-910000D3*
G54D20*
X-784498Y-201097D3*
G54D21*
X-784502Y-23898D3*
X-1040502Y-23903D3*
X-1040498Y-201103D3*
G54D22*
X-1537500Y975000D3*
G54D23*
Y875000D3*
Y775000D3*
Y675000D3*
X-1237500D3*
Y775000D3*
Y875000D3*
Y975000D3*
G54D22*
X-787500Y1212500D3*
G54D23*
Y1312500D3*
Y1412500D3*
Y1512500D3*
X-1087500D3*
Y1412500D3*
Y1312500D3*
Y1212500D3*
G54D24*
X-31201Y-12500D3*
G54D23*
Y87500D3*
Y187500D3*
Y287500D3*
Y387500D3*
Y487500D3*
Y587500D3*
X-343799D3*
Y487500D3*
Y387500D3*
Y287500D3*
Y187500D3*
Y87500D3*
Y-12500D3*
G54D25*
X-787499Y1837500D3*
G54D26*
X-787501Y1937500D3*
X-787503Y2037500D3*
M02*
