G04 DipTrace 4.3.0.5*
G04 DemirTopSilk.gbr*
%MOIN*%
G04 #@! TF.FileFunction,Legend,Top*
G04 #@! TF.Part,Single*
%ADD10C,0.004724*%
%ADD57C,0.00772*%
%FSLAX26Y26*%
G04*
G70*
G90*
G75*
G01*
G04 TopSilk*
%LPD*%
X-73425Y-508661D2*
G54D10*
X-97835D1*
Y-591339D1*
X-73425D1*
X23425Y-508661D2*
X47835D1*
Y-591339D1*
X23425D1*
X-139961Y-550000D2*
X-97835D1*
X47835D2*
X89961D1*
X83663Y1751573D2*
X83664Y1727164D1*
X166341Y1727167D1*
X166340Y1751576D1*
X83660Y1848424D2*
X83659Y1872833D1*
X166336Y1872836D1*
X166337Y1848427D1*
X125004Y1685039D2*
X125002Y1727165D1*
X124998Y1872835D2*
X124996Y1914961D1*
X-483661Y685925D2*
Y710335D1*
X-566339D1*
Y685925D1*
X-483661Y589075D2*
Y564665D1*
X-566339D1*
Y589075D1*
X-525000Y752461D2*
Y710335D1*
Y564665D2*
Y522539D1*
X-1436614Y2169587D2*
G03X-1436614Y2055413I35987J-57087D01*
G01*
X-1363386Y2169587D2*
G02X-1363386Y2055413I-35987J-57087D01*
G01*
G36*
X-1460133Y2042525D2*
X-1461417Y2042609D1*
X-1462680Y2042860D1*
X-1463899Y2043274D1*
X-1465054Y2043844D1*
X-1466124Y2044559D1*
X-1467092Y2045408D1*
X-1467941Y2046376D1*
X-1468656Y2047446D1*
X-1469226Y2048601D1*
X-1469640Y2049820D1*
X-1469891Y2051083D1*
X-1469975Y2052367D1*
X-1469891Y2053652D1*
X-1469640Y2054915D1*
X-1469226Y2056134D1*
X-1468656Y2057289D1*
X-1467941Y2058359D1*
X-1467092Y2059327D1*
X-1466124Y2060176D1*
X-1465054Y2060891D1*
X-1463899Y2061461D1*
X-1462680Y2061875D1*
X-1461417Y2062126D1*
X-1460133Y2062210D1*
D1*
X-1458848Y2062126D1*
X-1457585Y2061875D1*
X-1456366Y2061461D1*
X-1455211Y2060891D1*
X-1454141Y2060176D1*
X-1453173Y2059327D1*
X-1452324Y2058359D1*
X-1451609Y2057289D1*
X-1451039Y2056134D1*
X-1450625Y2054915D1*
X-1450374Y2053652D1*
X-1450290Y2052367D1*
X-1450374Y2051083D1*
X-1450625Y2049820D1*
X-1451039Y2048601D1*
X-1451609Y2047446D1*
X-1452324Y2046376D1*
X-1453173Y2045408D1*
X-1454141Y2044559D1*
X-1455211Y2043844D1*
X-1456366Y2043274D1*
X-1457585Y2042860D1*
X-1458848Y2042609D1*
X-1460133Y2042525D1*
D1*
G37*
X-280413Y836614D2*
G54D10*
G03X-394587Y836614I-57087J-35987D01*
G01*
X-280413Y763386D2*
G02X-394587Y763386I-57087J35987D01*
G01*
G36*
X-407475Y860133D2*
X-407391Y861417D1*
X-407140Y862680D1*
X-406726Y863899D1*
X-406156Y865054D1*
X-405441Y866124D1*
X-404592Y867092D1*
X-403624Y867941D1*
X-402554Y868656D1*
X-401399Y869226D1*
X-400180Y869640D1*
X-398917Y869891D1*
X-397633Y869975D1*
X-396348Y869891D1*
X-395085Y869640D1*
X-393866Y869226D1*
X-392711Y868656D1*
X-391641Y867941D1*
X-390673Y867092D1*
X-389824Y866124D1*
X-389109Y865054D1*
X-388539Y863899D1*
X-388125Y862680D1*
X-387874Y861417D1*
X-387790Y860133D1*
D1*
X-387874Y858848D1*
X-388125Y857585D1*
X-388539Y856366D1*
X-389109Y855211D1*
X-389824Y854141D1*
X-390673Y853173D1*
X-391641Y852324D1*
X-392711Y851609D1*
X-393866Y851039D1*
X-395085Y850625D1*
X-396348Y850374D1*
X-397633Y850290D1*
X-398917Y850374D1*
X-400180Y850625D1*
X-401399Y851039D1*
X-402554Y851609D1*
X-403624Y852324D1*
X-404592Y853173D1*
X-405441Y854141D1*
X-406156Y855211D1*
X-406726Y856366D1*
X-407140Y857585D1*
X-407391Y858848D1*
X-407475Y860133D1*
D1*
G37*
X-1031500Y2132000D2*
G54D10*
Y1968000D1*
X-1062500D1*
X-1093500Y2000000D1*
Y2100000D1*
X-1031500Y2132000D2*
X-1062500D1*
X-1093500Y2100000D1*
X-908661Y448425D2*
Y472835D1*
X-991339D1*
Y448425D1*
X-908661Y351575D2*
Y327165D1*
X-991339D1*
Y351575D1*
X-950000Y514961D2*
Y472835D1*
Y327165D2*
Y285039D1*
X-1326575Y-191339D2*
X-1302165D1*
Y-108661D1*
X-1326575D1*
X-1423425Y-191339D2*
X-1447835D1*
Y-108661D1*
X-1423425D1*
X-1260039Y-150000D2*
X-1302165D1*
X-1447835D2*
X-1489961D1*
X-1326575Y83661D2*
X-1302165D1*
Y166339D1*
X-1326575D1*
X-1423425Y83661D2*
X-1447835D1*
Y166339D1*
X-1423425D1*
X-1260039Y125000D2*
X-1302165D1*
X-1447835D2*
X-1489961D1*
X-771161Y423425D2*
Y447835D1*
X-853839D1*
Y423425D1*
X-771161Y326575D2*
Y302165D1*
X-853839D1*
Y326575D1*
X-812500Y489961D2*
Y447835D1*
Y302165D2*
Y260039D1*
X-1566457Y1934643D2*
X-1590866D1*
Y1851966D1*
X-1566457D1*
X-1469606Y1934643D2*
X-1445197D1*
Y1851966D1*
X-1469606D1*
X-1632992Y1893304D2*
X-1590866D1*
X-1445197D2*
X-1403071D1*
X-1674311Y1451575D2*
Y1427165D1*
X-1591634D1*
Y1451575D1*
X-1674311Y1548425D2*
Y1572835D1*
X-1591634D1*
Y1548425D1*
X-1632972Y1385039D2*
Y1427165D1*
Y1572835D2*
Y1614961D1*
X-1141339Y789075D2*
Y764665D1*
X-1058661D1*
Y789075D1*
X-1141339Y885925D2*
Y910335D1*
X-1058661D1*
Y885925D1*
X-1100000Y722539D2*
Y764665D1*
Y910335D2*
Y952461D1*
X-1403839Y1426575D2*
Y1402165D1*
X-1321161D1*
Y1426575D1*
X-1403839Y1523425D2*
Y1547835D1*
X-1321161D1*
Y1523425D1*
X-1362500Y1360039D2*
Y1402165D1*
Y1547835D2*
Y1589961D1*
X-335925Y1616339D2*
X-360335D1*
Y1533661D1*
X-335925D1*
X-239075Y1616339D2*
X-214665D1*
Y1533661D1*
X-239075D1*
X-402461Y1575000D2*
X-360335D1*
X-214665D2*
X-172539D1*
X-560925Y-246161D2*
X-585335D1*
Y-328839D1*
X-560925D1*
X-464075Y-246161D2*
X-439665D1*
Y-328839D1*
X-464075D1*
X-627461Y-287500D2*
X-585335D1*
X-439665D2*
X-397539D1*
X-73425Y-333661D2*
X-97835D1*
Y-416339D1*
X-73425D1*
X23425Y-333661D2*
X47835D1*
Y-416339D1*
X23425D1*
X-139961Y-375000D2*
X-97835D1*
X47835D2*
X89961D1*
X228835Y1423428D2*
X228833Y1447838D1*
X146156Y1447832D1*
X146158Y1423422D1*
X228842Y1326578D2*
X228844Y1302168D1*
X146167Y1302162D1*
X146165Y1326572D1*
X187492Y1489961D2*
X187495Y1447835D1*
X187505Y1302165D2*
X187508Y1260039D1*
X-48425Y-208661D2*
X-72835D1*
Y-291339D1*
X-48425D1*
X48425Y-208661D2*
X72835D1*
Y-291339D1*
X48425D1*
X-114961Y-250000D2*
X-72835D1*
X72835D2*
X114961D1*
X-285925Y1203839D2*
X-310335D1*
Y1121161D1*
X-285925D1*
X-189075Y1203839D2*
X-164665D1*
Y1121161D1*
X-189075D1*
X-352461Y1162500D2*
X-310335D1*
X-164665D2*
X-122539D1*
X133661Y1575D2*
Y-22835D1*
X216339D1*
Y1575D1*
X133661Y98425D2*
Y122835D1*
X216339D1*
Y98425D1*
X175000Y-64961D2*
Y-22835D1*
Y122835D2*
Y164961D1*
X-848425Y728839D2*
X-872835D1*
Y646161D1*
X-848425D1*
X-751575Y728839D2*
X-727165D1*
Y646161D1*
X-751575D1*
X-914961Y687500D2*
X-872835D1*
X-727165D2*
X-685039D1*
X-701575Y908661D2*
X-677165D1*
Y991339D1*
X-701575D1*
X-798425Y908661D2*
X-822835D1*
Y991339D1*
X-798425D1*
X-635039Y950000D2*
X-677165D1*
X-822835D2*
X-864961D1*
X-822539Y-112498D2*
X-823309Y-124241D1*
X-825604Y-135782D1*
X-829386Y-146925D1*
X-834591Y-157479D1*
X-841129Y-167264D1*
X-843512Y-169980D1*
X-962500Y-112500D2*
G02X-962500Y-112500I50000J0D01*
G01*
X-952402D2*
G02X-952402Y-112500I39902J0D01*
G01*
X-912475Y67421D2*
X-767475Y67424D1*
X-756884Y63094D1*
X-752455Y52503D1*
X-752448Y-277497D1*
X-767467Y-292418D1*
X-912467Y-292422D1*
X-912526D2*
X-1057526Y-292425D1*
X-1068117Y-288094D1*
X-1072546Y-277504D1*
X-1072554Y52496D1*
X-1068125Y63087D1*
X-1057534Y67418D1*
X-912534Y67421D1*
G36*
X-725687Y-212496D2*
X-725771Y-213781D1*
X-726022Y-215044D1*
X-726436Y-216263D1*
X-727005Y-217417D1*
X-727721Y-218488D1*
X-728569Y-219456D1*
X-729537Y-220305D1*
X-730608Y-221020D1*
X-731763Y-221590D1*
X-732982Y-222004D1*
X-734244Y-222255D1*
X-735529Y-222339D1*
X-736814Y-222255D1*
X-738077Y-222004D1*
X-739296Y-221590D1*
X-740450Y-221020D1*
X-741521Y-220305D1*
X-742489Y-219456D1*
X-743338Y-218488D1*
X-744053Y-217418D1*
X-744623Y-216263D1*
X-745036Y-215044D1*
X-745288Y-213781D1*
X-745372Y-212497D1*
D1*
X-745288Y-211212D1*
X-745036Y-209949D1*
X-744623Y-208730D1*
X-744053Y-207575D1*
X-743338Y-206505D1*
X-742489Y-205537D1*
X-741521Y-204688D1*
X-740451Y-203973D1*
X-739296Y-203403D1*
X-738077Y-202989D1*
X-736814Y-202738D1*
X-735530Y-202654D1*
X-734245Y-202738D1*
X-732982Y-202989D1*
X-731763Y-203403D1*
X-730608Y-203972D1*
X-729538Y-204688D1*
X-728570Y-205537D1*
X-727721Y-206505D1*
X-727006Y-207575D1*
X-726436Y-208730D1*
X-726022Y-209949D1*
X-725771Y-211211D1*
X-725687Y-212496D1*
D1*
G37*
X-855017Y-181487D2*
G54D10*
X-857735Y-183869D1*
X-867518Y-190407D1*
X-878072Y-195612D1*
X-889215Y-199395D1*
X-900757Y-201692D1*
X-912498Y-202461D1*
X-924241Y-201692D1*
X-935782Y-199396D1*
X-946925Y-195614D1*
X-957479Y-190409D1*
X-967264Y-183872D1*
X-976110Y-176113D1*
X-983870Y-167267D1*
X-990407Y-157482D1*
X-995612Y-146929D1*
X-999394Y-135786D1*
X-1001691Y-124245D1*
X-1002461Y-112502D1*
X-1001692Y-100760D1*
X-999396Y-89219D1*
X-995614Y-78076D1*
X-990409Y-67522D1*
X-983873Y-57737D1*
X-976113Y-48890D1*
X-967267Y-41131D1*
X-957482Y-34593D1*
X-946928Y-29388D1*
X-935785Y-25606D1*
X-924245Y-23309D1*
X-912502Y-22540D1*
X-900760Y-23308D1*
X-889218Y-25605D1*
X-878075Y-29387D1*
X-867521Y-34591D1*
X-857738Y-41129D1*
X-848890Y-48887D1*
X-841131Y-57734D1*
X-834593Y-67518D1*
X-829388Y-78072D1*
X-825606Y-89215D1*
X-823310Y-100756D1*
X-822539Y-112498D1*
X-1232579Y1006102D2*
Y1020276D1*
X-1542421D1*
Y1006102D1*
X-1232579Y643898D2*
Y629724D1*
X-1542421D1*
Y643898D1*
G36*
X-1576083Y984843D2*
X-1574798Y984758D1*
X-1573535Y984507D1*
X-1572316Y984093D1*
X-1571161Y983524D1*
X-1570091Y982809D1*
X-1569123Y981960D1*
X-1568274Y980992D1*
X-1567559Y979921D1*
X-1566989Y978767D1*
X-1566576Y977547D1*
X-1566324Y976285D1*
X-1566240Y975000D1*
X-1566324Y973715D1*
X-1566576Y972453D1*
X-1566989Y971233D1*
X-1567559Y970079D1*
X-1568274Y969008D1*
X-1569123Y968040D1*
X-1570091Y967191D1*
X-1571161Y966476D1*
X-1572316Y965907D1*
X-1573535Y965493D1*
X-1574798Y965242D1*
X-1576083Y965157D1*
D1*
X-1577367Y965242D1*
X-1578630Y965493D1*
X-1579849Y965907D1*
X-1581004Y966476D1*
X-1582074Y967191D1*
X-1583042Y968040D1*
X-1583891Y969008D1*
X-1584607Y970079D1*
X-1585176Y971233D1*
X-1585590Y972453D1*
X-1585841Y973715D1*
X-1585925Y975000D1*
X-1585841Y976285D1*
X-1585590Y977547D1*
X-1585176Y978767D1*
X-1584607Y979921D1*
X-1583891Y980992D1*
X-1583042Y981960D1*
X-1582074Y982809D1*
X-1581004Y983524D1*
X-1579849Y984093D1*
X-1578630Y984507D1*
X-1577367Y984758D1*
X-1576083Y984843D1*
D1*
G37*
X-1092421Y1181398D2*
G54D10*
Y1167224D1*
X-782579D1*
Y1181398D1*
X-1092421Y1543602D2*
Y1557776D1*
X-782579D1*
Y1543602D1*
G36*
X-748917Y1202657D2*
X-750202Y1202742D1*
X-751465Y1202993D1*
X-752684Y1203407D1*
X-753839Y1203976D1*
X-754909Y1204691D1*
X-755877Y1205540D1*
X-756726Y1206508D1*
X-757441Y1207579D1*
X-758011Y1208733D1*
X-758424Y1209953D1*
X-758676Y1211215D1*
X-758760Y1212500D1*
X-758676Y1213785D1*
X-758424Y1215047D1*
X-758011Y1216267D1*
X-757441Y1217421D1*
X-756726Y1218492D1*
X-755877Y1219460D1*
X-754909Y1220309D1*
X-753839Y1221024D1*
X-752684Y1221593D1*
X-751465Y1222007D1*
X-750202Y1222258D1*
X-748917Y1222343D1*
D1*
X-747633Y1222258D1*
X-746370Y1222007D1*
X-745151Y1221593D1*
X-743996Y1221024D1*
X-742926Y1220309D1*
X-741958Y1219460D1*
X-741109Y1218492D1*
X-740393Y1217421D1*
X-739824Y1216267D1*
X-739410Y1215047D1*
X-739159Y1213785D1*
X-739075Y1212500D1*
X-739159Y1211215D1*
X-739410Y1209953D1*
X-739824Y1208733D1*
X-740393Y1207579D1*
X-741109Y1206508D1*
X-741958Y1205540D1*
X-742926Y1204691D1*
X-743996Y1203976D1*
X-745151Y1203407D1*
X-746370Y1202993D1*
X-747633Y1202742D1*
X-748917Y1202657D1*
D1*
G37*
X-317421Y-42028D2*
G54D10*
Y-100295D1*
X-57579D1*
Y-42028D1*
X-317421Y617028D2*
Y675295D1*
X-57579D1*
Y617028D1*
G36*
X5807Y-22343D2*
X4522Y-22258D1*
X3260Y-22007D1*
X2041Y-21593D1*
X886Y-21024D1*
X-185Y-20309D1*
X-1153Y-19460D1*
X-2002Y-18492D1*
X-2717Y-17421D1*
X-3286Y-16267D1*
X-3700Y-15047D1*
X-3951Y-13785D1*
X-4035Y-12500D1*
X-3951Y-11215D1*
X-3700Y-9953D1*
X-3286Y-8733D1*
X-2717Y-7579D1*
X-2002Y-6508D1*
X-1153Y-5540D1*
X-185Y-4691D1*
X886Y-3976D1*
X2041Y-3407D1*
X3260Y-2993D1*
X4522Y-2742D1*
X5807Y-2657D1*
D1*
X7092Y-2742D1*
X8355Y-2993D1*
X9574Y-3407D1*
X10728Y-3976D1*
X11799Y-4691D1*
X12767Y-5540D1*
X13616Y-6508D1*
X14331Y-7579D1*
X14900Y-8733D1*
X15314Y-9953D1*
X15565Y-11215D1*
X15650Y-12500D1*
X15565Y-13785D1*
X15314Y-15047D1*
X14900Y-16267D1*
X14331Y-17421D1*
X13616Y-18492D1*
X12767Y-19460D1*
X11799Y-20309D1*
X10728Y-21024D1*
X9574Y-21593D1*
X8355Y-22007D1*
X7092Y-22258D1*
X5807Y-22343D1*
D1*
G37*
X-894387Y1727262D2*
G54D10*
X-709348Y1727265D1*
X-709356Y2147344D1*
X-894395Y2147341D1*
X-894387Y1727262D1*
G36*
X-692421Y1827659D2*
X-693705Y1827744D1*
X-694968Y1827995D1*
X-696187Y1828408D1*
X-697342Y1828978D1*
X-698412Y1829693D1*
X-699380Y1830542D1*
X-700229Y1831510D1*
X-700945Y1832580D1*
X-701514Y1833735D1*
X-701928Y1834954D1*
X-702179Y1836217D1*
X-702263Y1837502D1*
X-702179Y1838786D1*
X-701928Y1840049D1*
X-701514Y1841268D1*
X-700945Y1842423D1*
X-700229Y1843493D1*
X-699381Y1844461D1*
X-698413Y1845310D1*
X-697342Y1846026D1*
X-696187Y1846595D1*
X-694968Y1847009D1*
X-693706Y1847260D1*
X-692421Y1847344D1*
D1*
X-691136Y1847260D1*
X-689873Y1847009D1*
X-688654Y1846595D1*
X-687500Y1846026D1*
X-686429Y1845311D1*
X-685461Y1844462D1*
X-684612Y1843494D1*
X-683897Y1842423D1*
X-683328Y1841269D1*
X-682914Y1840049D1*
X-682662Y1838787D1*
X-682578Y1837502D1*
X-682662Y1836217D1*
X-682914Y1834955D1*
X-683327Y1833735D1*
X-683897Y1832581D1*
X-684612Y1831510D1*
X-685461Y1830542D1*
X-686429Y1829693D1*
X-687499Y1828978D1*
X-688654Y1828409D1*
X-689873Y1827995D1*
X-691136Y1827744D1*
X-692421Y1827659D1*
D1*
G37*
X-20781Y-617579D2*
G54D57*
X-23158Y-612825D1*
X-27966Y-608017D1*
X-32720Y-605640D1*
X-42281D1*
X-47090Y-608017D1*
X-51843Y-612825D1*
X-54275Y-617579D1*
X-56651Y-624764D1*
Y-636757D1*
X-54275Y-643887D1*
X-51843Y-648695D1*
X-47090Y-653449D1*
X-42281Y-655880D1*
X-32720D1*
X-27966Y-653449D1*
X-23158Y-648695D1*
X-20781Y-643887D1*
X-5342Y-615257D2*
X-534Y-612825D1*
X6651Y-605696D1*
Y-655880D1*
X135629Y-531485D2*
X140438Y-529053D1*
X147623Y-521923D1*
Y-572108D1*
X163062Y-538615D2*
Y-562547D1*
X165439Y-569676D1*
X170247Y-572108D1*
X177432D1*
X182185Y-569676D1*
X189371Y-562547D1*
Y-538615D2*
Y-572108D1*
X12534Y1793465D2*
X7781Y1791088D1*
X2973Y1786280D1*
X596Y1781526D1*
X597Y1771965D1*
X2973Y1767156D1*
X7782Y1762403D1*
X12535Y1759972D1*
X19720Y1757595D1*
X31714Y1757596D1*
X38844Y1759972D1*
X43652Y1762405D1*
X48405Y1767158D1*
X50837Y1771966D1*
X50836Y1781528D1*
X48404Y1786281D1*
X43651Y1791089D1*
X38843Y1793466D1*
X651Y1813712D2*
X650Y1839965D1*
X19774Y1825651D1*
X19773Y1832836D1*
X22150Y1837589D1*
X24526Y1839966D1*
X31711Y1842398D1*
X36464D1*
X43649Y1839967D1*
X48458Y1835214D1*
X50835Y1828029D1*
Y1820844D1*
X48459Y1813714D1*
X46027Y1811337D1*
X41274Y1808905D1*
X193198Y1718258D2*
X193197Y1744511D1*
X212321Y1730197D1*
X212320Y1737382D1*
X214697Y1742135D1*
X217073Y1744511D1*
X224258Y1746944D1*
X229011D1*
X236197Y1744512D1*
X241005Y1739759D1*
X243382Y1732574D1*
Y1725389D1*
X241006Y1718259D1*
X238574Y1715883D1*
X233821Y1713451D1*
X193196Y1767190D2*
X193195Y1793443D1*
X212319Y1779129D1*
Y1786314D1*
X214695Y1791067D1*
X217072Y1793444D1*
X224257Y1795876D1*
X229010D1*
X236195Y1793445D1*
X241004Y1788692D1*
X243380Y1781507D1*
X243381Y1774322D1*
X241004Y1767192D1*
X238573Y1764815D1*
X233819Y1762383D1*
X193194Y1825684D2*
X195571Y1818500D1*
X202756Y1813691D1*
X214695Y1811315D1*
X221880D1*
X233818Y1813692D1*
X241003Y1818501D1*
X243379Y1825686D1*
Y1830439D1*
X241002Y1837624D1*
X233817Y1842377D1*
X221878Y1844809D1*
X214693Y1844808D1*
X202755Y1842376D1*
X195570Y1837623D1*
X193194Y1830438D1*
Y1825684D1*
X202755Y1842376D2*
X233818Y1813692D1*
X209884Y1860248D2*
X243378Y1860249D1*
X219446Y1860248D2*
X212261Y1867433D1*
X209884Y1872241D1*
Y1879371D1*
X212260Y1884179D1*
X219445Y1886556D1*
X243377Y1886557D1*
X-587534Y645220D2*
X-582781Y647596D1*
X-577972Y652405D1*
X-575596Y657158D1*
Y666719D1*
X-577972Y671528D1*
X-582781Y676281D1*
X-587534Y678713D1*
X-594719Y681090D1*
X-606713D1*
X-613842Y678713D1*
X-618651Y676281D1*
X-623404Y671528D1*
X-625836Y666719D1*
Y657158D1*
X-623404Y652405D1*
X-618651Y647596D1*
X-613842Y645220D1*
X-625836Y605849D2*
X-575651D1*
X-609089Y629780D1*
Y593910D1*
X-422713Y713303D2*
X-420281Y708495D1*
X-413151Y701310D1*
X-463336D1*
X-413151Y671500D2*
X-415528Y678685D1*
X-422713Y683494D1*
X-434651Y685870D1*
X-441836D1*
X-453774Y683494D1*
X-460959Y678685D1*
X-463336Y671500D1*
Y666747D1*
X-460959Y659562D1*
X-453774Y654809D1*
X-441836Y652377D1*
X-434651D1*
X-422713Y654809D1*
X-415528Y659562D1*
X-413151Y666747D1*
Y671500D1*
X-422713Y654809D2*
X-453774Y683494D1*
X-413151Y622568D2*
X-415528Y629753D1*
X-422713Y634561D1*
X-434651Y636938D1*
X-441836D1*
X-453774Y634561D1*
X-460959Y629753D1*
X-463336Y622568D1*
Y617815D1*
X-460959Y610629D1*
X-453774Y605876D1*
X-441836Y603444D1*
X-434651D1*
X-422713Y605876D1*
X-415528Y610629D1*
X-413151Y617815D1*
Y622568D1*
X-422713Y605876D2*
X-453774Y634561D1*
X-429842Y588005D2*
X-463336D1*
X-439404D2*
X-432219Y580820D1*
X-429842Y576012D1*
Y568882D1*
X-432219Y564073D1*
X-439404Y561697D1*
X-463336D1*
X-1562593Y2082037D2*
X-1512353D1*
Y2098784D1*
X-1514785Y2105969D1*
X-1519538Y2110777D1*
X-1524347Y2113154D1*
X-1531476Y2115530D1*
X-1543470D1*
X-1550655Y2113154D1*
X-1555408Y2110777D1*
X-1560217Y2105969D1*
X-1562593Y2098784D1*
Y2082037D1*
X-1552976Y2130970D2*
X-1555408Y2135778D1*
X-1562538Y2142963D1*
X-1512353D1*
X-378713Y937593D2*
Y887353D1*
X-361966D1*
X-354781Y889785D1*
X-349973Y894538D1*
X-347596Y899347D1*
X-345220Y906476D1*
Y918470D1*
X-347596Y925655D1*
X-349973Y930408D1*
X-354781Y935217D1*
X-361966Y937593D1*
X-378713D1*
X-327349Y925600D2*
Y927976D1*
X-324972Y932785D1*
X-322595Y935161D1*
X-317787Y937538D1*
X-308225D1*
X-303472Y935161D1*
X-301095Y932785D1*
X-298664Y927976D1*
Y923223D1*
X-301095Y918415D1*
X-305849Y911285D1*
X-329780Y887353D1*
X-296287D1*
X-937266Y2093497D2*
X-939588Y2098250D1*
X-944396Y2103059D1*
X-949205Y2105435D1*
X-956390Y2107867D1*
X-968328D1*
X-975513Y2105435D1*
X-980266Y2103059D1*
X-985075Y2098250D1*
X-987451Y2093497D1*
Y2083936D1*
X-985075Y2079127D1*
X-980266Y2074374D1*
X-975513Y2071997D1*
X-968328Y2069565D1*
X-956390D1*
X-949205Y2071997D1*
X-944396Y2074374D1*
X-939588Y2079127D1*
X-937266Y2083936D1*
Y2093497D1*
X-977890Y2086312D2*
X-992260Y2071997D1*
X-946883Y2054126D2*
X-944451Y2049318D1*
X-937322Y2042133D1*
X-987506D1*
X-1148708Y2176699D2*
X-1184578D1*
X-1191763Y2174322D1*
X-1196516Y2169514D1*
X-1198948Y2162329D1*
Y2157576D1*
X-1196516Y2150391D1*
X-1191763Y2145582D1*
X-1184578Y2143206D1*
X-1148708D1*
X-1160646Y2091896D2*
X-1155893Y2094273D1*
X-1151085Y2099082D1*
X-1148708Y2103835D1*
Y2113396D1*
X-1151085Y2118205D1*
X-1155893Y2122958D1*
X-1160646Y2125390D1*
X-1167831Y2127766D1*
X-1179825D1*
X-1186955Y2125390D1*
X-1191763Y2122958D1*
X-1196516Y2118205D1*
X-1198948Y2113396D1*
Y2103835D1*
X-1196516Y2099082D1*
X-1191763Y2094273D1*
X-1186955Y2091896D1*
X-1179825D1*
Y2103835D1*
X-1148708Y2042964D2*
X-1198948D1*
X-1148708Y2076457D1*
X-1198948D1*
X-1148763Y2022716D2*
Y1996463D1*
X-1167887Y2010778D1*
Y2003593D1*
X-1170263Y1998840D1*
X-1172640Y1996463D1*
X-1179825Y1994031D1*
X-1184578D1*
X-1191763Y1996463D1*
X-1196571Y2001216D1*
X-1198948Y2008401D1*
Y2015586D1*
X-1196571Y2022716D1*
X-1194140Y2025093D1*
X-1189386Y2027525D1*
X-1148763Y1949907D2*
Y1973784D1*
X-1170263Y1976160D1*
X-1167887Y1973784D1*
X-1165455Y1966599D1*
Y1959469D1*
X-1167887Y1952284D1*
X-1172640Y1947475D1*
X-1179825Y1945099D1*
X-1184578D1*
X-1191763Y1947475D1*
X-1196571Y1952284D1*
X-1198948Y1959469D1*
Y1966599D1*
X-1196571Y1973784D1*
X-1194140Y1976160D1*
X-1189386Y1978592D1*
X-1148763Y1915289D2*
X-1151140Y1922474D1*
X-1158325Y1927283D1*
X-1170263Y1929659D1*
X-1177448D1*
X-1189386Y1927283D1*
X-1196571Y1922474D1*
X-1198948Y1915289D1*
Y1910536D1*
X-1196571Y1903351D1*
X-1189386Y1898598D1*
X-1177448Y1896166D1*
X-1170263D1*
X-1158325Y1898598D1*
X-1151140Y1903351D1*
X-1148763Y1910536D1*
Y1915289D1*
X-1158325Y1898598D2*
X-1189386Y1927283D1*
X-1148763Y1875918D2*
Y1849665D1*
X-1167887Y1863980D1*
Y1856795D1*
X-1170263Y1852042D1*
X-1172640Y1849665D1*
X-1179825Y1847234D1*
X-1184578D1*
X-1191763Y1849665D1*
X-1196571Y1854419D1*
X-1198948Y1861604D1*
Y1868789D1*
X-1196571Y1875918D1*
X-1194140Y1878295D1*
X-1189386Y1880727D1*
X-1148708Y1831794D2*
X-1184578D1*
X-1191763Y1829418D1*
X-1196516Y1824609D1*
X-1198948Y1817424D1*
Y1812671D1*
X-1196516Y1805486D1*
X-1191763Y1800678D1*
X-1184578Y1798301D1*
X-1148708D1*
X-1029572Y455463D2*
Y433963D1*
X-1027140Y426778D1*
X-1024764Y424346D1*
X-1020011Y421970D1*
X-1015202D1*
X-1010449Y424346D1*
X-1008017Y426778D1*
X-1005640Y433963D1*
Y455463D1*
X-1055880D1*
X-1029572Y438716D2*
X-1055880Y421970D1*
X-1015257Y406530D2*
X-1012825Y401722D1*
X-1005696Y394537D1*
X-1055880D1*
X-1015257Y341213D2*
X-1012825Y336405D1*
X-1005696Y329220D1*
X-1055880D1*
X-1005640Y313780D2*
X-1055880D1*
X-1022387Y289849D2*
X-1046319Y313780D1*
X-1036757Y304219D2*
X-1055880Y287472D1*
X-1416213Y-229055D2*
X-1394713D1*
X-1387528Y-226623D1*
X-1385096Y-224247D1*
X-1382720Y-219493D1*
Y-214685D1*
X-1385096Y-209932D1*
X-1387528Y-207500D1*
X-1394713Y-205123D1*
X-1416213D1*
Y-255363D1*
X-1399466Y-229055D2*
X-1382720Y-255363D1*
X-1364849Y-217117D2*
Y-214740D1*
X-1362472Y-209932D1*
X-1360095Y-207555D1*
X-1355287Y-205179D1*
X-1345725D1*
X-1340972Y-207555D1*
X-1338595Y-209932D1*
X-1336164Y-214740D1*
Y-219493D1*
X-1338595Y-224302D1*
X-1343349Y-231432D1*
X-1367280Y-255363D1*
X-1333787D1*
X-1404900Y-38151D2*
X-1428777D1*
X-1431153Y-59651D1*
X-1428777Y-57274D1*
X-1421592Y-54842D1*
X-1414462D1*
X-1407277Y-57274D1*
X-1402468Y-62028D1*
X-1400092Y-69213D1*
Y-73966D1*
X-1402468Y-81151D1*
X-1407277Y-85959D1*
X-1414462Y-88336D1*
X-1421592D1*
X-1428777Y-85959D1*
X-1431153Y-83527D1*
X-1433585Y-78774D1*
X-1382276Y-83527D2*
X-1384653Y-85959D1*
X-1382276Y-88336D1*
X-1379844Y-85959D1*
X-1382276Y-83527D1*
X-1335720Y-45281D2*
X-1338097Y-40528D1*
X-1345282Y-38151D1*
X-1350035D1*
X-1357220Y-40528D1*
X-1362028Y-47713D1*
X-1364405Y-59651D1*
Y-71589D1*
X-1362028Y-81151D1*
X-1357220Y-85959D1*
X-1350035Y-88336D1*
X-1347658D1*
X-1340528Y-85959D1*
X-1335720Y-81151D1*
X-1333343Y-73966D1*
Y-71589D1*
X-1335720Y-64404D1*
X-1340528Y-59651D1*
X-1347658Y-57274D1*
X-1350035D1*
X-1357220Y-59651D1*
X-1362028Y-64404D1*
X-1364405Y-71589D1*
X-1317904Y-38096D2*
Y-88336D1*
X-1293972Y-54842D2*
X-1317904Y-78774D1*
X-1308343Y-69213D2*
X-1291596Y-88336D1*
X-1416213Y45428D2*
X-1394713D1*
X-1387528Y47860D1*
X-1385096Y50236D1*
X-1382720Y54989D1*
Y59798D1*
X-1385096Y64551D1*
X-1387528Y66983D1*
X-1394713Y69360D1*
X-1416213D1*
Y19120D1*
X-1399466Y45428D2*
X-1382720Y19120D1*
X-1362472Y69304D2*
X-1336219D1*
X-1350534Y50181D1*
X-1343349D1*
X-1338595Y47804D1*
X-1336219Y45428D1*
X-1333787Y38243D1*
Y33490D1*
X-1336219Y26305D1*
X-1340972Y21496D1*
X-1348157Y19120D1*
X-1355342D1*
X-1362472Y21496D1*
X-1364849Y23928D1*
X-1367280Y28681D1*
X-1401871Y225426D2*
X-1397062Y227858D1*
X-1389877Y234988D1*
Y184803D1*
X-1374438Y235043D2*
Y184803D1*
X-1350506Y218297D2*
X-1374438Y194365D1*
X-1364876Y203927D2*
X-1348129Y184803D1*
X-892072Y517963D2*
Y496463D1*
X-889640Y489278D1*
X-887264Y486846D1*
X-882511Y484470D1*
X-877702D1*
X-872949Y486846D1*
X-870517Y489278D1*
X-868140Y496463D1*
Y517963D1*
X-918380D1*
X-892072Y501216D2*
X-918380Y484470D1*
Y445099D2*
X-868196D1*
X-901634Y469030D1*
Y433160D1*
X-918380Y366186D2*
X-868195D1*
X-901633Y390118D1*
Y354248D1*
X-918380Y329247D2*
X-868195Y305315D1*
Y338808D1*
X-868140Y289876D2*
X-918380D1*
X-884886Y265944D2*
X-908818Y289876D1*
X-899257Y280314D2*
X-918380Y263567D1*
X-1559244Y1993777D2*
X-1537745D1*
X-1530560Y1996209D1*
X-1528128Y1998585D1*
X-1525751Y2003339D1*
Y2008147D1*
X-1528128Y2012900D1*
X-1530560Y2015332D1*
X-1537745Y2017709D1*
X-1559244D1*
Y1967469D1*
X-1542498Y1993777D2*
X-1525751Y1967469D1*
X-1481627Y2017653D2*
X-1505503D1*
X-1507880Y1996154D1*
X-1505503Y1998530D1*
X-1498318Y2000962D1*
X-1491189D1*
X-1484004Y1998530D1*
X-1479195Y1993777D1*
X-1476819Y1986592D1*
Y1981839D1*
X-1479195Y1974654D1*
X-1484004Y1969845D1*
X-1491189Y1967469D1*
X-1498318D1*
X-1505503Y1969845D1*
X-1507880Y1972277D1*
X-1510312Y1977030D1*
X-1574656Y1817980D2*
X-1577033Y1822733D1*
X-1584218Y1825109D1*
X-1588971D1*
X-1596156Y1822733D1*
X-1600964Y1815548D1*
X-1603341Y1803610D1*
Y1791671D1*
X-1600964Y1782110D1*
X-1596156Y1777301D1*
X-1588971Y1774925D1*
X-1586594D1*
X-1579465Y1777301D1*
X-1574656Y1782110D1*
X-1572279Y1789295D1*
Y1791671D1*
X-1574656Y1798856D1*
X-1579465Y1803610D1*
X-1586594Y1805986D1*
X-1588971D1*
X-1596156Y1803610D1*
X-1600964Y1798856D1*
X-1603341Y1791671D1*
X-1544902Y1825109D2*
X-1552032Y1822733D1*
X-1554464Y1817980D1*
Y1813171D1*
X-1552032Y1808418D1*
X-1547279Y1805986D1*
X-1537717Y1803610D1*
X-1530532Y1801233D1*
X-1525779Y1796425D1*
X-1523402Y1791671D1*
Y1784486D1*
X-1525779Y1779733D1*
X-1528155Y1777301D1*
X-1535340Y1774925D1*
X-1544902D1*
X-1552032Y1777301D1*
X-1554464Y1779733D1*
X-1556840Y1784486D1*
Y1791671D1*
X-1554464Y1796425D1*
X-1549655Y1801233D1*
X-1542525Y1803610D1*
X-1532964Y1805986D1*
X-1528155Y1808418D1*
X-1525779Y1813171D1*
Y1817980D1*
X-1528155Y1822733D1*
X-1535340Y1825109D1*
X-1544902D1*
X-1493593D2*
X-1500778Y1822733D1*
X-1505586Y1815548D1*
X-1507963Y1803610D1*
Y1796425D1*
X-1505586Y1784486D1*
X-1500778Y1777301D1*
X-1493593Y1774925D1*
X-1488840D1*
X-1481655Y1777301D1*
X-1476901Y1784486D1*
X-1474470Y1796425D1*
Y1803610D1*
X-1476901Y1815548D1*
X-1481655Y1822733D1*
X-1488840Y1825109D1*
X-1493593D1*
X-1476901Y1815548D2*
X-1505586Y1784486D1*
X-1459030Y1825165D2*
Y1774925D1*
X-1435099Y1808418D2*
X-1459030Y1784486D1*
X-1449469Y1794048D2*
X-1432722Y1774925D1*
X-1733445Y1460003D2*
Y1481503D1*
X-1735877Y1488688D1*
X-1738253Y1491120D1*
X-1743007Y1493496D1*
X-1747815D1*
X-1752568Y1491120D1*
X-1755000Y1488688D1*
X-1757377Y1481503D1*
Y1460003D1*
X-1707137D1*
X-1733445Y1476750D2*
X-1707137Y1493496D1*
X-1750192Y1537620D2*
X-1754945Y1535244D1*
X-1757321Y1528059D1*
Y1523306D1*
X-1754945Y1516121D1*
X-1747760Y1511312D1*
X-1735822Y1508936D1*
X-1723883D1*
X-1714322Y1511312D1*
X-1709513Y1516121D1*
X-1707137Y1523306D1*
Y1525682D1*
X-1709513Y1532812D1*
X-1714322Y1537620D1*
X-1721507Y1539997D1*
X-1723883D1*
X-1731068Y1537620D1*
X-1735822Y1532812D1*
X-1738198Y1525682D1*
Y1523306D1*
X-1735822Y1516121D1*
X-1731068Y1511312D1*
X-1723883Y1508936D1*
X-1552839Y1430221D2*
X-1555216D1*
X-1560024Y1432598D1*
X-1562401Y1434974D1*
X-1564777Y1439783D1*
Y1449345D1*
X-1562401Y1454098D1*
X-1560024Y1456474D1*
X-1555216Y1458906D1*
X-1550463D1*
X-1545654Y1456474D1*
X-1538524Y1451721D1*
X-1514593Y1427789D1*
Y1461283D1*
X-1519401Y1479099D2*
X-1516969Y1476722D1*
X-1514593Y1479099D1*
X-1516969Y1481530D1*
X-1519401Y1479099D1*
X-1552839Y1499402D2*
X-1555216D1*
X-1560024Y1501778D1*
X-1562401Y1504155D1*
X-1564777Y1508963D1*
Y1518525D1*
X-1562401Y1523278D1*
X-1560024Y1525655D1*
X-1555216Y1528086D1*
X-1550463D1*
X-1545654Y1525655D1*
X-1538524Y1520901D1*
X-1514593Y1496970D1*
Y1530463D1*
X-1564833Y1545902D2*
X-1514593D1*
X-1548086Y1569834D2*
X-1524154Y1545902D1*
X-1533716Y1555464D2*
X-1514593Y1572211D1*
X-1007928Y808787D2*
Y830287D1*
X-1010360Y837472D1*
X-1012736Y839904D1*
X-1017489Y842280D1*
X-1022298D1*
X-1027051Y839904D1*
X-1029483Y837472D1*
X-1031860Y830287D1*
Y808787D1*
X-981620D1*
X-1007928Y825534D2*
X-981620Y842280D1*
Y867281D2*
X-1031804Y891213D1*
Y857720D1*
X-1169867Y486650D2*
X-1172243D1*
X-1177052Y489027D1*
X-1179428Y491404D1*
X-1181805Y496212D1*
Y505774D1*
X-1179428Y510527D1*
X-1177052Y512903D1*
X-1172243Y515335D1*
X-1167490D1*
X-1162682Y512903D1*
X-1155552Y508150D1*
X-1131620Y484219D1*
Y517712D1*
X-1136429Y535528D2*
X-1133997Y533151D1*
X-1131620Y535528D1*
X-1133997Y537960D1*
X-1136429Y535528D1*
X-1169867Y555831D2*
X-1172243D1*
X-1177052Y558207D1*
X-1179428Y560584D1*
X-1181805Y565392D1*
Y574954D1*
X-1179428Y579707D1*
X-1177052Y582084D1*
X-1172243Y584516D1*
X-1167490D1*
X-1162682Y582084D1*
X-1155552Y577331D1*
X-1131620Y553399D1*
Y586892D1*
X-1181860Y602331D2*
X-1131620D1*
X-1165114Y626263D2*
X-1141182Y602331D1*
X-1150743Y611893D2*
X-1131620Y628640D1*
X-1270428Y1411359D2*
Y1432859D1*
X-1272860Y1440044D1*
X-1275236Y1442476D1*
X-1279989Y1444853D1*
X-1284798D1*
X-1289551Y1442476D1*
X-1291983Y1440044D1*
X-1294360Y1432859D1*
Y1411359D1*
X-1244120D1*
X-1270428Y1428106D2*
X-1244120Y1444853D1*
X-1294304Y1472230D2*
X-1291928Y1465100D1*
X-1287175Y1462668D1*
X-1282366D1*
X-1277613Y1465100D1*
X-1275181Y1469854D1*
X-1272804Y1479415D1*
X-1270428Y1486600D1*
X-1265619Y1491353D1*
X-1260866Y1493730D1*
X-1253681D1*
X-1248928Y1491353D1*
X-1246496Y1488977D1*
X-1244120Y1481792D1*
Y1472230D1*
X-1246496Y1465100D1*
X-1248928Y1462668D1*
X-1253681Y1460292D1*
X-1260866D1*
X-1265619Y1462668D1*
X-1270428Y1467477D1*
X-1272804Y1474607D1*
X-1275181Y1484168D1*
X-1277613Y1488977D1*
X-1282366Y1491353D1*
X-1287175D1*
X-1291928Y1488977D1*
X-1294304Y1481792D1*
Y1472230D1*
X-1284743Y1548466D2*
X-1287175Y1553275D1*
X-1294304Y1560460D1*
X-1244120D1*
X-1294304Y1590269D2*
X-1291928Y1583084D1*
X-1284743Y1578276D1*
X-1272804Y1575899D1*
X-1265619D1*
X-1253681Y1578276D1*
X-1246496Y1583084D1*
X-1244120Y1590269D1*
Y1595022D1*
X-1246496Y1602207D1*
X-1253681Y1606961D1*
X-1265619Y1609392D1*
X-1272804D1*
X-1284743Y1606961D1*
X-1291928Y1602207D1*
X-1294304Y1595022D1*
Y1590269D1*
X-1284743Y1606961D2*
X-1253681Y1578276D1*
X-1294360Y1624832D2*
X-1244120D1*
X-1277613Y1648763D2*
X-1253681Y1624832D1*
X-1263243Y1634393D2*
X-1244120Y1651140D1*
X-327525Y1675472D2*
X-306025D1*
X-298840Y1677904D1*
X-296408Y1680281D1*
X-294031Y1685034D1*
Y1689843D1*
X-296408Y1694596D1*
X-298840Y1697028D1*
X-306025Y1699404D1*
X-327525D1*
Y1649164D1*
X-310778Y1675472D2*
X-294031Y1649164D1*
X-247475Y1682658D2*
X-249907Y1675472D1*
X-254660Y1670664D1*
X-261845Y1668287D1*
X-264222D1*
X-271407Y1670664D1*
X-276160Y1675472D1*
X-278592Y1682658D1*
Y1685034D1*
X-276160Y1692219D1*
X-271407Y1696972D1*
X-264222Y1699349D1*
X-261845D1*
X-254660Y1696972D1*
X-249907Y1692219D1*
X-247475Y1682658D1*
Y1670664D1*
X-249907Y1658726D1*
X-254660Y1651541D1*
X-261845Y1649164D1*
X-266599D1*
X-273784Y1651541D1*
X-276160Y1656349D1*
X-396143Y1497243D2*
X-391334Y1499675D1*
X-384149Y1506805D1*
Y1456620D1*
X-354340Y1506805D2*
X-361525Y1504428D1*
X-366333Y1497243D1*
X-368710Y1485305D1*
Y1478120D1*
X-366333Y1466182D1*
X-361525Y1458997D1*
X-354340Y1456620D1*
X-349587D1*
X-342402Y1458997D1*
X-337649Y1466182D1*
X-335217Y1478120D1*
Y1485305D1*
X-337649Y1497243D1*
X-342402Y1504428D1*
X-349587Y1506805D1*
X-354340D1*
X-337649Y1497243D2*
X-366333Y1466182D1*
X-319777Y1490114D2*
Y1456620D1*
Y1480552D2*
X-312592Y1487737D1*
X-307784Y1490114D1*
X-300654D1*
X-295846Y1487737D1*
X-293469Y1480552D1*
Y1456620D1*
Y1480552D2*
X-286284Y1487737D1*
X-281476Y1490114D1*
X-274346D1*
X-269537Y1487737D1*
X-267106Y1480552D1*
Y1456620D1*
X-251666Y1475743D2*
X-222981D1*
Y1480552D1*
X-225358Y1485360D1*
X-227735Y1487737D1*
X-232543Y1490114D1*
X-239728D1*
X-244481Y1487737D1*
X-249290Y1482928D1*
X-251666Y1475743D1*
Y1470990D1*
X-249290Y1463805D1*
X-244481Y1459052D1*
X-239728Y1456620D1*
X-232543D1*
X-227735Y1459052D1*
X-222981Y1463805D1*
X-178857Y1487737D2*
Y1449435D1*
X-181234Y1442305D1*
X-183610Y1439874D1*
X-188419Y1437497D1*
X-195604D1*
X-200357Y1439874D1*
X-178857Y1480552D2*
X-183610Y1485305D1*
X-188419Y1487737D1*
X-195604D1*
X-200357Y1485305D1*
X-205166Y1480552D1*
X-207542Y1473367D1*
Y1468558D1*
X-205166Y1461429D1*
X-200357Y1456620D1*
X-195604Y1454244D1*
X-188419D1*
X-183610Y1456620D1*
X-178857Y1461429D1*
X-567429Y-379572D2*
X-545929D1*
X-538744Y-377140D1*
X-536313Y-374764D1*
X-533936Y-370011D1*
Y-365202D1*
X-536313Y-360449D1*
X-538744Y-358017D1*
X-545929Y-355640D1*
X-567429D1*
Y-405880D1*
X-550683Y-379572D2*
X-533936Y-405880D1*
X-518497Y-365257D2*
X-513688Y-362825D1*
X-506503Y-355696D1*
Y-405880D1*
X-476694Y-355696D2*
X-483879Y-358072D1*
X-488687Y-365257D1*
X-491064Y-377196D1*
Y-384381D1*
X-488687Y-396319D1*
X-483879Y-403504D1*
X-476694Y-405880D1*
X-471941D1*
X-464756Y-403504D1*
X-460003Y-396319D1*
X-457571Y-384381D1*
Y-377196D1*
X-460003Y-365257D1*
X-464756Y-358072D1*
X-471941Y-355696D1*
X-476694D1*
X-460003Y-365257D2*
X-488687Y-396319D1*
X-596676Y-165257D2*
X-591868Y-162825D1*
X-584683Y-155695D1*
Y-205880D1*
X-569244Y-172386D2*
Y-205880D1*
Y-181948D2*
X-562059Y-174763D1*
X-557250Y-172386D1*
X-550120D1*
X-545312Y-174763D1*
X-542935Y-181948D1*
Y-205880D1*
Y-181948D2*
X-535750Y-174763D1*
X-530942Y-172386D1*
X-523812D1*
X-519004Y-174763D1*
X-516572Y-181948D1*
Y-205880D1*
X-501133Y-186757D2*
X-472448D1*
Y-181948D1*
X-474824Y-177140D1*
X-477201Y-174763D1*
X-482009Y-172386D1*
X-489194D1*
X-493948Y-174763D1*
X-498756Y-179572D1*
X-501133Y-186757D1*
Y-191510D1*
X-498756Y-198695D1*
X-493948Y-203448D1*
X-489194Y-205880D1*
X-482009D1*
X-477201Y-203448D1*
X-472448Y-198695D1*
X-428324Y-174763D2*
Y-213065D1*
X-430700Y-220195D1*
X-433077Y-222626D1*
X-437885Y-225003D1*
X-445070D1*
X-449823Y-222626D1*
X-428324Y-181948D2*
X-433077Y-177195D1*
X-437885Y-174763D1*
X-445070D1*
X-449823Y-177195D1*
X-454632Y-181948D1*
X-457008Y-189133D1*
Y-193942D1*
X-454632Y-201071D1*
X-449823Y-205880D1*
X-445070Y-208256D1*
X-437885D1*
X-433077Y-205880D1*
X-428324Y-201071D1*
X-51337Y-454572D2*
X-29837D1*
X-22652Y-452140D1*
X-20220Y-449763D1*
X-17844Y-445010D1*
Y-440201D1*
X-20220Y-435448D1*
X-22652Y-433016D1*
X-29837Y-430640D1*
X-51337D1*
Y-480880D1*
X-34590Y-454572D2*
X-17844Y-480880D1*
X-2404Y-440257D2*
X2404Y-437825D1*
X9589Y-430695D1*
Y-480880D1*
X25028Y-440257D2*
X29837Y-437825D1*
X37022Y-430695D1*
Y-480880D1*
X198663Y-356485D2*
X203472Y-354053D1*
X210657Y-346923D1*
Y-397108D1*
X228528Y-358862D2*
Y-356485D1*
X230904Y-351677D1*
X233281Y-349300D1*
X238089Y-346923D1*
X247651D1*
X252404Y-349300D1*
X254781Y-351677D1*
X257213Y-356485D1*
Y-361238D1*
X254781Y-366047D1*
X250028Y-373176D1*
X226096Y-397108D1*
X259589D1*
X275029Y-346868D2*
Y-397108D1*
X298960Y-363615D2*
X275029Y-387547D1*
X284590Y-377985D2*
X301337Y-397108D1*
X287969Y1429936D2*
X287970Y1408436D1*
X290402Y1401252D1*
X292779Y1398820D1*
X297533Y1396444D1*
X302341D1*
X307094Y1398821D1*
X309526Y1401253D1*
X311902Y1408438D1*
X311900Y1429938D1*
X261660Y1429935D1*
X287970Y1413190D2*
X261663Y1396441D1*
X302287Y1381005D2*
X304719Y1376196D1*
X311849Y1369012D1*
X261665Y1369008D1*
X299912Y1351140D2*
X302289D1*
X307098Y1348764D1*
X309474Y1346387D1*
X311851Y1341579D1*
X311852Y1332018D1*
X309476Y1327264D1*
X307099Y1324887D1*
X302291Y1322455D1*
X297538D1*
X292729Y1324886D1*
X285599Y1329639D1*
X261666Y1353569D1*
X261668Y1320076D1*
X107363Y1434649D2*
X109739D1*
X114548Y1432273D1*
X116925Y1429897D1*
X119301Y1425088D1*
X119302Y1415527D1*
X116926Y1410774D1*
X114549Y1408397D1*
X109741Y1405965D1*
X104988Y1405964D1*
X100179Y1408396D1*
X93049Y1413148D1*
X69116Y1437078D1*
X69118Y1403585D1*
X107366Y1385717D2*
X109743D1*
X114551Y1383341D1*
X116928Y1380964D1*
X119305Y1376156D1*
X119306Y1366594D1*
X116929Y1361841D1*
X114553Y1359464D1*
X109745Y1357032D1*
X104991D1*
X100183Y1359463D1*
X93053Y1364216D1*
X69119Y1388146D1*
X69122Y1354653D1*
X119363Y1339217D2*
X69123Y1339213D1*
X102618Y1315284D2*
X78684Y1339214D1*
X88247Y1329653D2*
X69125Y1312905D1*
X-62087Y-167072D2*
X-40587D1*
X-33402Y-164640D1*
X-30970Y-162263D1*
X-28593Y-157510D1*
Y-152701D1*
X-30970Y-147948D1*
X-33402Y-145516D1*
X-40587Y-143140D1*
X-62087D1*
Y-193380D1*
X-45340Y-167072D2*
X-28593Y-193380D1*
X-13154Y-152757D2*
X-8346Y-150325D1*
X-1161Y-143195D1*
Y-193380D1*
X19087Y-143195D2*
X45340D1*
X31025Y-162318D1*
X38210D1*
X42963Y-164695D1*
X45340Y-167072D1*
X47772Y-174257D1*
Y-179010D1*
X45340Y-186195D1*
X40587Y-191003D1*
X33402Y-193380D1*
X26217D1*
X19087Y-191003D1*
X16710Y-188571D1*
X14279Y-183818D1*
X227845Y-233862D2*
Y-231485D1*
X230222Y-226677D1*
X232598Y-224300D1*
X237407Y-221923D1*
X246968D1*
X251722Y-224300D1*
X254098Y-226677D1*
X256530Y-231485D1*
Y-236238D1*
X254098Y-241047D1*
X249345Y-248176D1*
X225413Y-272108D1*
X258907D1*
X276778Y-233862D2*
Y-231485D1*
X279154Y-226677D1*
X281531Y-224300D1*
X286339Y-221923D1*
X295901D1*
X300654Y-224300D1*
X303031Y-226677D1*
X305463Y-231485D1*
Y-236238D1*
X303031Y-241047D1*
X298278Y-248176D1*
X274346Y-272108D1*
X307839D1*
X323278Y-221868D2*
Y-272108D1*
X347210Y-238615D2*
X323278Y-262547D1*
X332840Y-252985D2*
X349587Y-272108D1*
X-293618Y1262972D2*
X-272118D1*
X-264933Y1265404D1*
X-262501Y1267781D1*
X-260124Y1272534D1*
Y1277343D1*
X-262501Y1282096D1*
X-264933Y1284528D1*
X-272118Y1286904D1*
X-293618D1*
Y1236664D1*
X-276871Y1262972D2*
X-260124Y1236664D1*
X-244685Y1277287D2*
X-239877Y1279719D1*
X-232692Y1286849D1*
Y1236664D1*
X-193321D2*
Y1286849D1*
X-217252Y1253411D1*
X-181382D1*
X-287621Y1094305D2*
X-294751Y1091928D1*
X-297183Y1087175D1*
Y1082367D1*
X-294751Y1077614D1*
X-289997Y1075182D1*
X-280436Y1072805D1*
X-273251Y1070428D1*
X-268498Y1065620D1*
X-266121Y1060867D1*
Y1053682D1*
X-268498Y1048929D1*
X-270874Y1046497D1*
X-278059Y1044120D1*
X-287621D1*
X-294751Y1046497D1*
X-297183Y1048929D1*
X-299559Y1053682D1*
Y1060867D1*
X-297183Y1065620D1*
X-292374Y1070428D1*
X-285244Y1072805D1*
X-275683Y1075182D1*
X-270874Y1077614D1*
X-268498Y1082367D1*
Y1087175D1*
X-270874Y1091928D1*
X-278059Y1094305D1*
X-287621D1*
X-248250Y1082367D2*
Y1084743D1*
X-245873Y1089552D1*
X-243497Y1091928D1*
X-238688Y1094305D1*
X-229127D1*
X-224373Y1091928D1*
X-221997Y1089552D1*
X-219565Y1084743D1*
Y1079990D1*
X-221997Y1075182D1*
X-226750Y1068052D1*
X-250682Y1044120D1*
X-217188D1*
X-201749Y1094360D2*
Y1044120D1*
X-177817Y1077614D2*
X-201749Y1053682D1*
X-192188Y1063243D2*
X-175441Y1044120D1*
X267072Y-4929D2*
Y16571D1*
X264640Y23756D1*
X262263Y26187D1*
X257510Y28564D1*
X252701D1*
X247948Y26187D1*
X245516Y23756D1*
X243140Y16571D1*
Y-4929D1*
X293380D1*
X267072Y11817D2*
X293380Y28564D1*
X252757Y44003D2*
X250325Y48812D1*
X243195Y55997D1*
X293380D1*
X243195Y100121D2*
Y76244D1*
X264695Y73868D1*
X262318Y76244D1*
X259886Y83429D1*
Y90559D1*
X262318Y97744D1*
X267072Y102553D1*
X274257Y104929D1*
X279010D1*
X286195Y102553D1*
X291003Y97744D1*
X293380Y90559D1*
Y83429D1*
X291003Y76244D1*
X288571Y73868D1*
X283818Y71436D1*
X75085Y-19779D2*
X72708D1*
X67900Y-17402D1*
X65523Y-15026D1*
X63147Y-10217D1*
Y-655D1*
X65523Y4098D1*
X67900Y6474D1*
X72708Y8906D1*
X77461D1*
X82270Y6474D1*
X89400Y1721D1*
X113331Y-22211D1*
Y11283D1*
X108523Y29099D2*
X110955Y26722D1*
X113331Y29099D1*
X110955Y31530D1*
X108523Y29099D1*
X113331Y56531D2*
X63147Y80463D1*
Y46970D1*
X63091Y95902D2*
X113331D1*
X79838Y119834D2*
X103770Y95902D1*
X94208Y105464D2*
X113331Y122211D1*
X-820901Y775472D2*
X-799401D1*
X-792216Y777904D1*
X-789784Y780281D1*
X-787408Y785034D1*
Y789843D1*
X-789784Y794596D1*
X-792216Y797028D1*
X-799401Y799404D1*
X-820901D1*
Y749164D1*
X-804154Y775472D2*
X-787408Y749164D1*
X-771968Y789787D2*
X-767160Y792219D1*
X-759975Y799349D1*
Y749164D1*
X-715851Y792219D2*
X-718227Y796972D1*
X-725412Y799349D1*
X-730166D1*
X-737351Y796972D1*
X-742159Y789787D1*
X-744536Y777849D1*
Y765911D1*
X-742159Y756349D1*
X-737351Y751541D1*
X-730166Y749164D1*
X-727789D1*
X-720659Y751541D1*
X-715851Y756349D1*
X-713474Y763534D1*
Y765911D1*
X-715851Y773096D1*
X-720659Y777849D1*
X-727789Y780226D1*
X-730166D1*
X-737351Y777849D1*
X-742159Y773096D1*
X-744536Y765911D1*
X-874587Y619305D2*
X-881717Y616928D1*
X-884149Y612175D1*
Y607367D1*
X-881717Y602614D1*
X-876964Y600182D1*
X-867402Y597805D1*
X-860217Y595428D1*
X-855464Y590620D1*
X-853087Y585867D1*
Y578682D1*
X-855464Y573929D1*
X-857841Y571497D1*
X-865026Y569120D1*
X-874587D1*
X-881717Y571497D1*
X-884149Y573929D1*
X-886525Y578682D1*
Y585867D1*
X-884149Y590620D1*
X-879340Y595428D1*
X-872211Y597805D1*
X-862649Y600182D1*
X-857841Y602614D1*
X-855464Y607367D1*
Y612175D1*
X-857841Y616928D1*
X-865026Y619305D1*
X-874587D1*
X-835216Y607367D2*
Y609743D1*
X-832840Y614552D1*
X-830463Y616928D1*
X-825655Y619305D1*
X-816093D1*
X-811340Y616928D1*
X-808963Y614552D1*
X-806531Y609743D1*
Y604990D1*
X-808963Y600182D1*
X-813716Y593052D1*
X-837648Y569120D1*
X-804155D1*
X-774345Y619305D2*
X-781530Y616928D1*
X-786339Y609743D1*
X-788715Y597805D1*
Y590620D1*
X-786339Y578682D1*
X-781530Y571497D1*
X-774345Y569120D1*
X-769592D1*
X-762407Y571497D1*
X-757654Y578682D1*
X-755222Y590620D1*
Y597805D1*
X-757654Y609743D1*
X-762407Y616928D1*
X-769592Y619305D1*
X-774345D1*
X-757654Y609743D2*
X-786339Y578682D1*
X-739783Y619360D2*
Y569120D1*
X-715851Y602614D2*
X-739783Y578682D1*
X-730221Y588243D2*
X-713475Y569120D1*
X-804929Y857928D2*
X-783429D1*
X-776244Y860360D1*
X-773813Y862736D1*
X-771436Y867489D1*
Y872298D1*
X-773813Y877051D1*
X-776244Y879483D1*
X-783429Y881860D1*
X-804929D1*
Y831620D1*
X-788183Y857928D2*
X-771436Y831620D1*
X-755997Y872243D2*
X-751188Y874675D1*
X-744003Y881804D1*
Y831620D1*
X-719002D2*
X-695071Y881804D1*
X-728564D1*
X-776245Y1054720D2*
X-778621Y1059473D1*
X-785807Y1061850D1*
X-790560D1*
X-797745Y1059473D1*
X-802553Y1052288D1*
X-804930Y1040350D1*
Y1028411D1*
X-802553Y1018850D1*
X-797745Y1014041D1*
X-790560Y1011665D1*
X-788183D1*
X-781053Y1014041D1*
X-776245Y1018850D1*
X-773868Y1026035D1*
Y1028411D1*
X-776245Y1035597D1*
X-781053Y1040350D1*
X-788183Y1042726D1*
X-790560D1*
X-797745Y1040350D1*
X-802553Y1035597D1*
X-804930Y1028411D1*
X-746491Y1061850D2*
X-753621Y1059473D1*
X-756052Y1054720D1*
Y1049911D1*
X-753621Y1045158D1*
X-748867Y1042726D1*
X-739306Y1040350D1*
X-732121Y1037973D1*
X-727368Y1033165D1*
X-724991Y1028411D1*
Y1021226D1*
X-727368Y1016473D1*
X-729744Y1014041D1*
X-736929Y1011665D1*
X-746491D1*
X-753621Y1014041D1*
X-756052Y1016473D1*
X-758429Y1021226D1*
Y1028411D1*
X-756052Y1033165D1*
X-751244Y1037973D1*
X-744114Y1040350D1*
X-734553Y1042726D1*
X-729744Y1045158D1*
X-727368Y1049911D1*
Y1054720D1*
X-729744Y1059473D1*
X-736929Y1061850D1*
X-746491D1*
X-709552Y1061905D2*
Y1011665D1*
X-685620Y1045158D2*
X-709552Y1021226D1*
X-699990Y1030788D2*
X-683243Y1011665D1*
X-909470Y-325324D2*
X-914224Y-320516D1*
X-921409Y-318140D1*
X-930970D1*
X-938155Y-320517D1*
X-942964Y-325325D1*
X-942963Y-330078D1*
X-940532Y-334887D1*
X-938155Y-337263D1*
X-933402Y-339640D1*
X-919031Y-344448D1*
X-914223Y-346824D1*
X-911846Y-349256D1*
X-909470Y-354009D1*
X-909469Y-361194D1*
X-914223Y-365948D1*
X-921408Y-368380D1*
X-930969D1*
X-938154Y-365948D1*
X-942963Y-361195D1*
X-894031Y-327756D2*
X-889223Y-325324D1*
X-882038Y-318194D1*
X-882037Y-368379D1*
X-1417963Y1103341D2*
Y1067471D1*
X-1415586Y1060286D1*
X-1410778Y1055533D1*
X-1403593Y1053101D1*
X-1398840D1*
X-1391655Y1055533D1*
X-1386846Y1060286D1*
X-1384470Y1067471D1*
Y1103341D1*
X-1369030Y1093724D2*
X-1364222Y1096156D1*
X-1357037Y1103286D1*
Y1053101D1*
X-1272943Y546659D2*
Y596899D1*
X-1301628D1*
X-1355314D2*
Y546659D1*
X-1336191Y596899D1*
X-1317068Y546659D1*
Y596899D1*
X-1375562Y546714D2*
X-1401815D1*
X-1387500Y565837D1*
X-1394685D1*
X-1399438Y568214D1*
X-1401815Y570591D1*
X-1404247Y577776D1*
Y582529D1*
X-1401815Y589714D1*
X-1397062Y594522D1*
X-1389877Y596899D1*
X-1382692D1*
X-1375562Y594522D1*
X-1373185Y592090D1*
X-1370753Y587337D1*
X-1448371Y546714D2*
X-1424494D1*
X-1422118Y568214D1*
X-1424494Y565837D1*
X-1431679Y563405D1*
X-1438809D1*
X-1445994Y565837D1*
X-1450803Y570591D1*
X-1453179Y577776D1*
Y582529D1*
X-1450803Y589714D1*
X-1445994Y594522D1*
X-1438809Y596899D1*
X-1431679D1*
X-1424494Y594522D1*
X-1422118Y592090D1*
X-1419686Y587337D1*
X-1480557Y546714D2*
X-1473427Y549091D1*
X-1470995Y553844D1*
Y558652D1*
X-1473427Y563405D1*
X-1478180Y565837D1*
X-1487742Y568214D1*
X-1494927Y570591D1*
X-1499680Y575399D1*
X-1502057Y580152D1*
Y587337D1*
X-1499680Y592090D1*
X-1497303Y594522D1*
X-1490118Y596899D1*
X-1480557D1*
X-1473427Y594522D1*
X-1470995Y592090D1*
X-1468618Y587337D1*
Y580152D1*
X-1470995Y575399D1*
X-1475804Y570591D1*
X-1482933Y568214D1*
X-1492495Y565837D1*
X-1497303Y563405D1*
X-1499680Y558652D1*
Y553844D1*
X-1497303Y549091D1*
X-1490118Y546714D1*
X-1480557D1*
X-1225723Y1321287D2*
X-1189853D1*
X-1182668Y1323664D1*
X-1177915Y1328472D1*
X-1175483Y1335657D1*
Y1340410D1*
X-1177915Y1347595D1*
X-1182668Y1352404D1*
X-1189853Y1354780D1*
X-1225723D1*
X-1213730Y1372651D2*
X-1216106D1*
X-1220915Y1375028D1*
X-1223291Y1377405D1*
X-1225668Y1382213D1*
Y1391775D1*
X-1223291Y1396528D1*
X-1220915Y1398905D1*
X-1216106Y1401336D1*
X-1211353D1*
X-1206545Y1398905D1*
X-1199415Y1394151D1*
X-1175483Y1370220D1*
Y1403713D1*
X-705541Y1247943D2*
X-655301D1*
Y1276628D1*
Y1330314D2*
X-705541D1*
X-655301Y1311191D1*
X-705541Y1292068D1*
X-655301D1*
X-705486Y1350562D2*
Y1376815D1*
X-686363Y1362500D1*
Y1369685D1*
X-683986Y1374438D1*
X-681610Y1376815D1*
X-674425Y1379247D1*
X-669671D1*
X-662486Y1376815D1*
X-657678Y1372062D1*
X-655301Y1364877D1*
Y1357692D1*
X-657678Y1350562D1*
X-660110Y1348185D1*
X-664863Y1345753D1*
X-705486Y1423371D2*
Y1399494D1*
X-683986Y1397118D1*
X-686363Y1399494D1*
X-688795Y1406679D1*
Y1413809D1*
X-686363Y1420994D1*
X-681610Y1425803D1*
X-674425Y1428179D1*
X-669671D1*
X-662486Y1425803D1*
X-657678Y1420994D1*
X-655301Y1413809D1*
Y1406679D1*
X-657678Y1399494D1*
X-660110Y1397118D1*
X-664863Y1394686D1*
X-705486Y1455557D2*
X-703109Y1448427D1*
X-698356Y1445995D1*
X-693548D1*
X-688795Y1448427D1*
X-686363Y1453180D1*
X-683986Y1462742D1*
X-681610Y1469927D1*
X-676801Y1474680D1*
X-672048Y1477057D1*
X-664863D1*
X-660110Y1474680D1*
X-657678Y1472303D1*
X-655301Y1465118D1*
Y1455557D1*
X-657678Y1448427D1*
X-660110Y1445995D1*
X-664863Y1443618D1*
X-672048D1*
X-676801Y1445995D1*
X-681610Y1450804D1*
X-683986Y1457933D1*
X-686363Y1467495D1*
X-688795Y1472303D1*
X-693548Y1474680D1*
X-698356D1*
X-703109Y1472303D1*
X-705486Y1465118D1*
Y1455557D1*
X-482022Y246287D2*
X-446152D1*
X-438967Y248664D1*
X-434214Y253472D1*
X-431782Y260657D1*
Y265410D1*
X-434214Y272595D1*
X-438967Y277404D1*
X-446152Y279780D1*
X-482022D1*
X-481967Y300028D2*
Y326281D1*
X-462844Y311966D1*
Y319151D1*
X-460467Y323905D1*
X-458091Y326281D1*
X-450906Y328713D1*
X-446152D1*
X-438967Y326281D1*
X-434159Y321528D1*
X-431782Y314343D1*
Y307158D1*
X-434159Y300028D1*
X-436591Y297651D1*
X-441344Y295220D1*
X50758Y192067D2*
X100998D1*
X50758Y175320D2*
Y208813D1*
Y224253D2*
X100998D1*
Y252937D1*
X50813Y282747D2*
X53190Y275562D1*
X60375Y270753D1*
X72313Y268377D1*
X79498D1*
X91436Y270753D1*
X98621Y275562D1*
X100998Y282747D1*
Y287500D1*
X98621Y294685D1*
X91436Y299438D1*
X79498Y301870D1*
X72313D1*
X60375Y299438D1*
X53190Y294685D1*
X50813Y287500D1*
Y282747D1*
X60375Y299438D2*
X91436Y270753D1*
X57943Y345994D2*
X53190Y343618D1*
X50813Y336433D1*
Y331679D1*
X53190Y324494D1*
X60375Y319686D1*
X72313Y317309D1*
X84251D1*
X93813Y319686D1*
X98621Y324494D1*
X100998Y331679D1*
Y334056D1*
X98621Y341186D1*
X93813Y345994D1*
X86628Y348371D1*
X84251D1*
X77066Y345994D1*
X72313Y341186D1*
X69936Y334056D1*
Y331679D1*
X72313Y324494D1*
X77066Y319686D1*
X84251Y317309D1*
X100998Y387742D2*
X50813D1*
X84251Y363810D1*
Y399680D1*
X-964956Y1832399D2*
X-929086D1*
X-921901Y1834776D1*
X-917148Y1839585D1*
X-914716Y1846770D1*
Y1851523D1*
X-917148Y1858708D1*
X-921902Y1863516D1*
X-929087Y1865893D1*
X-964957Y1865892D1*
X-914717Y1905264D2*
X-964902Y1905263D1*
X-931464Y1881332D1*
Y1917202D1*
X-615380Y1857966D2*
X-665565Y1881897D1*
X-665564Y1848404D1*
X-665566Y1909274D2*
X-663189Y1902145D1*
X-658436Y1899713D1*
X-653627D1*
X-648874Y1902145D1*
X-646442Y1906898D1*
X-644066Y1916460D1*
X-641689Y1923645D1*
X-636881Y1928398D1*
X-632128Y1930775D1*
X-624943D1*
X-620190Y1928398D1*
X-617758Y1926022D1*
X-615381Y1918837D1*
Y1909275D1*
X-617757Y1902145D1*
X-620189Y1899714D1*
X-624942Y1897337D1*
X-632127D1*
X-636881Y1899713D1*
X-641689Y1904522D1*
X-644066Y1911651D1*
X-646443Y1921213D1*
X-648874Y1926021D1*
X-653628Y1928398D1*
X-658436D1*
X-663189Y1926021D1*
X-665566Y1918836D1*
Y1909274D1*
X-665567Y1960583D2*
X-663190Y1953398D1*
X-656005Y1948590D1*
X-644066Y1946214D1*
X-636881D1*
X-624943Y1948591D1*
X-617758Y1953399D1*
X-615382Y1960584D1*
Y1965338D1*
X-617759Y1972523D1*
X-624944Y1977276D1*
X-636882Y1979707D1*
X-644067D1*
X-656005Y1977275D1*
X-663190Y1972522D1*
X-665567Y1965337D1*
Y1960583D1*
X-656005Y1977275D2*
X-624943Y1948591D1*
X-658438Y2023831D2*
X-663191Y2021454D1*
X-665568Y2014269D1*
X-665567Y2009516D1*
X-663191Y2002331D1*
X-656006Y1997523D1*
X-644067Y1995146D1*
X-632129Y1995147D1*
X-622568Y1997523D1*
X-617759Y2002332D1*
X-615383Y2009517D1*
Y2011894D1*
X-617759Y2019023D1*
X-622568Y2023832D1*
X-629753Y2026208D1*
X-632130D1*
X-639315Y2023831D1*
X-644068Y2019023D1*
X-646444Y2011893D1*
Y2009516D1*
X-644067Y2002331D1*
X-639314Y1997523D1*
X-632129Y1995147D1*
M02*
